<svg width="160" height="64" viewBox="0 0 160 64" fill="none" xmlns="http://www.w3.org/2000/svg">
<path d="M10.845 30.2982C11.4487 28.4403 14.0772 28.4403 14.6809 30.2982L16.3096 35.3109C16.5795 36.1418 17.3538 36.7043 18.2274 36.7043H23.498C25.4516 36.7043 26.2638 39.2042 24.6834 40.3524L20.4194 43.4504C19.7126 43.9639 19.4168 44.8742 19.6868 45.705L21.3155 50.7177C21.9192 52.5756 19.7927 54.1206 18.2122 52.9723L13.9483 49.8743C13.2415 49.3608 12.2844 49.3608 11.5776 49.8743L7.31362 52.9723C5.73315 54.1206 3.60666 52.5756 4.21034 50.7177L5.83904 45.705C6.10901 44.8742 5.81326 43.9639 5.10646 43.4504L0.84247 40.3524C-0.737984 39.2042 0.0742664 36.7043 2.02781 36.7043H7.29836C8.17202 36.7043 8.94634 36.1418 9.2163 35.3109L10.845 30.2982Z" fill="#E55F35"/>
<path d="M44.1029 18.1986C44.7066 16.3407 47.3351 16.3407 47.9388 18.1986L49.5675 23.2113C49.8374 24.0422 50.6118 24.6047 51.4854 24.6047H56.756C58.7095 24.6047 59.5218 27.1046 57.9413 28.2528L53.6774 31.3508C52.9705 31.8643 52.6748 32.7746 52.9447 33.6054L54.5734 38.6181C55.1771 40.476 53.0507 42.021 51.4702 40.8727L47.2062 37.7747C46.4994 37.2612 45.5423 37.2612 44.8355 37.7747L40.5715 40.8727C38.9911 42.021 36.8646 40.476 37.4683 38.6181L39.097 33.6054C39.3669 32.7746 39.0712 31.8643 38.3644 31.3508L34.1004 28.2528C32.52 27.1046 33.3322 24.6047 35.2858 24.6047H40.5563C41.4299 24.6047 42.2043 24.0422 42.4742 23.2113L44.1029 18.1986Z" fill="#E55F35"/>
<path d="M77.6809 1.39345C78.2845 -0.464484 80.9129 -0.464484 81.5165 1.39345L83.1453 6.40606C83.4155 7.23699 84.1899 7.79949 85.0631 7.79949H90.3339C92.2873 7.79949 93.1 10.2994 91.519 11.4476L87.2551 14.5456C86.5487 15.0591 86.2529 15.9694 86.5224 16.8002L88.1512 21.8129C88.7548 23.6708 86.6286 25.2158 85.0483 24.0675L80.7838 20.9695C80.0773 20.456 79.1201 20.456 78.4136 20.9695L74.1491 24.0675C72.5688 25.2158 70.4426 23.6708 71.0462 21.8129L72.675 16.8002C72.9445 15.9694 72.6487 15.0591 71.9423 14.5456L67.6778 11.4476C66.0977 10.2994 66.9099 7.79949 68.8635 7.79949H74.1343C75.0075 7.79949 75.7819 7.23699 76.0521 6.40607L77.6809 1.39345Z" fill="#E55F35"/>
<path d="M111.258 18.1986C111.862 16.3407 114.49 16.3407 115.094 18.1986L116.723 23.2113C116.993 24.0422 117.767 24.6047 118.64 24.6047H123.911C125.865 24.6047 126.677 27.1046 125.096 28.2528L120.833 31.3508C120.125 31.8643 119.83 32.7746 120.1 33.6054L121.729 38.6181C122.332 40.476 120.206 42.021 118.625 40.8727L114.361 37.7747C113.655 37.2612 112.697 37.2612 111.99 37.7747L107.727 40.8727C106.146 42.021 104.02 40.476 104.624 38.6181L106.252 33.6054C106.522 32.7746 106.226 31.8643 105.52 31.3508L101.256 28.2528C99.6748 27.1046 100.488 24.6047 102.441 24.6047H107.712C108.585 24.6047 109.359 24.0422 109.63 23.2113L111.258 18.1986Z" fill="#E55F35"/>
<path d="M144.836 30.2982C145.439 28.4403 148.068 28.4403 148.672 30.2982L150.301 35.3109C150.57 36.1418 151.345 36.7043 152.219 36.7043H157.489C159.443 36.7043 160.255 39.2042 158.674 40.3524L154.411 43.4504C153.703 43.9639 153.408 44.8742 153.678 45.705L155.307 50.7177C155.91 52.5756 153.783 54.1206 152.203 52.9723L147.939 49.8743C147.232 49.3608 146.276 49.3608 145.568 49.8743L141.305 52.9723C139.724 54.1206 137.597 52.5756 138.201 50.7177L139.83 45.705C140.1 44.8742 139.804 43.9639 139.097 43.4504L134.833 40.3524C133.253 39.2042 134.065 36.7043 136.019 36.7043H141.289C142.163 36.7043 142.937 36.1418 143.207 35.3109L144.836 30.2982Z" fill="#E55F35"/>
<path d="M55.4931 60.4988V58.3393H49.7143V56.3679L55.2673 49.34H57.931V56.3528H59.3004V58.3393H57.931V60.4988H55.4931ZM52.0619 56.3528H55.4931V52.1165L52.0619 56.3528ZM61.1933 60.6342C60.792 60.6342 60.4685 60.5314 60.2226 60.3257C59.9769 60.1201 59.8539 59.8291 59.8539 59.4529C59.8539 59.0767 59.9769 58.7857 60.2226 58.58C60.4685 58.3694 60.792 58.264 61.1933 58.264C61.5645 58.264 61.878 58.3719 62.1339 58.5876C62.3897 58.7982 62.5176 59.0867 62.5176 59.4529C62.5176 59.8191 62.3897 60.1075 62.1339 60.3182C61.878 60.5289 61.5645 60.6342 61.1933 60.6342ZM65.6595 60.4988C66.9086 59.3701 67.8969 58.2339 68.6242 57.0902C68.2229 57.316 67.7793 57.4288 67.2926 57.4288C66.7556 57.4288 66.2515 57.3435 65.7799 57.173C65.3084 57.0024 64.8896 56.7566 64.5234 56.4356C64.1622 56.1145 63.8762 55.7007 63.6656 55.1941C63.4549 54.6874 63.3496 54.1181 63.3496 53.486C63.3496 52.894 63.4348 52.3548 63.6054 51.8682C63.7759 51.3816 64.0067 50.9753 64.2976 50.6493C64.5886 50.3182 64.9297 50.0398 65.3209 49.8141C65.7173 49.5883 66.1336 49.4252 66.57 49.325C67.0115 49.2246 67.4727 49.1744 67.9547 49.1744C68.4414 49.1744 68.9052 49.2296 69.3469 49.34C69.7932 49.4453 70.2147 49.6134 70.6106 49.8442C71.0072 50.0749 71.3507 50.3608 71.6418 50.7019C71.9322 51.038 72.1607 51.4519 72.3261 51.9435C72.4968 52.4351 72.5822 52.9793 72.5822 53.5763C72.5822 54.113 72.5143 54.6221 72.3792 55.1037C72.2488 55.5803 72.0155 56.097 71.6794 56.6538C71.3433 57.2106 70.942 57.7774 70.4755 58.3543C70.0137 58.9312 69.3966 59.646 68.6242 60.4988H65.6595ZM67.9769 55.6455C68.6646 55.6455 69.2064 55.4524 69.6023 55.0661C70.0036 54.6799 70.2046 54.1481 70.2046 53.4709C70.2046 52.7837 70.0036 52.2444 69.6023 51.8532C69.201 51.4619 68.6518 51.2663 67.9547 51.2663C67.2771 51.2663 66.7381 51.4619 66.3368 51.8532C65.9404 52.2444 65.7423 52.7837 65.7423 53.4709C65.7423 54.1431 65.943 54.6749 66.3443 55.0661C66.7506 55.4524 67.2946 55.6455 67.9769 55.6455ZM81.1757 60.7019C80.6238 60.7019 80.1102 60.5991 79.6336 60.3935C79.1618 60.1878 78.7504 59.8943 78.3995 59.5131C78.0486 59.1268 77.7696 58.6403 77.5639 58.0534C77.3636 57.4664 77.2634 56.8118 77.2634 56.0894C77.2634 55.3671 77.3636 54.715 77.5639 54.1331C77.7649 53.5461 78.0405 53.0646 78.3921 52.6884C78.743 52.3122 79.1544 52.0237 79.6256 51.8231C80.0975 51.6174 80.609 51.5145 81.1609 51.5145C81.7981 51.5145 82.3749 51.665 82.8918 51.9661C83.4081 52.262 83.7718 52.6658 83.9828 53.1775V48.8208H86.3228V60.4837H83.9828V59.0466C83.7718 59.5482 83.4054 59.9495 82.8838 60.2505C82.3675 60.5515 81.7982 60.7019 81.1757 60.7019ZM81.8378 58.7456C82.4999 58.7456 83.0343 58.5073 83.441 58.0308C83.8524 57.5542 84.0581 56.9071 84.0581 56.0894C84.0581 55.2768 83.8524 54.6347 83.441 54.1632C83.0296 53.6917 82.4905 53.4559 81.823 53.4559C81.1609 53.4559 80.6238 53.6917 80.2131 54.1632C79.8064 54.6297 79.6034 55.2718 79.6034 56.0894C79.6034 56.9121 79.8091 57.5617 80.2205 58.0383C80.6319 58.5098 81.171 58.7456 81.8378 58.7456ZM92.1656 60.6719C90.7815 60.6719 89.6704 60.2555 88.8328 59.4228C87.9946 58.5851 87.5758 57.4739 87.5758 56.0894C87.5758 54.735 87.9946 53.6339 88.8328 52.7862C89.6704 51.9384 90.756 51.5145 92.0903 51.5145C93.5456 51.5145 94.6689 51.9811 95.4614 52.9141C96.254 53.8472 96.58 55.0862 96.4395 56.6312H89.9157C89.9359 57.3435 90.1517 57.9003 90.5631 58.3016C90.9745 58.6979 91.531 58.896 92.2335 58.896C93.2317 58.896 93.8939 58.5324 94.2199 57.8051L96.3568 58.0608C96.0409 58.9186 95.5293 59.5683 94.8222 60.0097C94.115 60.4511 93.229 60.6719 92.1656 60.6719ZM89.9688 55.0887H94.2952C94.2501 54.4968 94.037 54.0277 93.6559 53.6816C93.2748 53.3355 92.7726 53.1625 92.1508 53.1625C91.5391 53.1625 91.037 53.3305 90.6458 53.6665C90.2599 53.9977 90.034 54.4717 89.9688 55.0887ZM105.643 60.6719C104.424 60.6719 103.421 60.3985 102.633 59.8517C101.846 59.3049 101.369 58.5199 101.203 57.4965L103.363 57.2633C103.504 57.6847 103.759 58.0057 104.131 58.2264C104.502 58.4471 104.971 58.5575 105.538 58.5575C106.23 58.5575 106.782 58.3744 107.193 58.0082C107.61 57.642 107.818 57.1479 107.818 56.5258C107.818 55.9189 107.61 55.4398 107.193 55.0887C106.782 54.7376 106.225 54.5695 105.523 54.5846C104.57 54.5996 103.88 54.9683 103.453 55.6906L101.347 55.3821L102.362 49.34H109.511V51.4393H104.214L103.792 53.659C104.464 53.2226 105.224 52.9969 106.072 52.9818C107.291 52.9568 108.276 53.2803 109.029 53.9525C109.781 54.6247 110.158 55.5226 110.158 56.6462C110.158 57.8401 109.739 58.8108 108.901 59.5582C108.069 60.3006 106.982 60.6719 105.643 60.6719Z" fill="#E55F35"/>
</svg>
