<svg width="4097" height="575" viewBox="0 0 4097 575" fill="none" xmlns="http://www.w3.org/2000/svg">
<path d="M3960.87 206.75C3962.26 206.755 3962.26 206.755 3963.66 206.76C3990.41 206.877 3990.41 206.877 4003 209C4003.87 209.145 4004.74 209.291 4005.63 209.44C4023.85 212.671 4042.02 218.875 4057 230C4057.88 230.648 4058.76 231.297 4059.66 231.965C4064.76 235.881 4069.11 239.877 4073 245C4073 245.66 4073 246.32 4073 247C4073.66 247 4074.32 247 4075 247C4092.74 267.685 4096.19 299.477 4096.19 325.483C4096.19 328.033 4096.21 330.582 4096.22 333.131C4096.27 347.046 4095.72 361.5 4092 375C4090.08 376.919 4086.51 376.155 4083.89 376.158C4083.14 376.163 4082.39 376.168 4081.61 376.173C4079.08 376.189 4076.54 376.197 4074 376.205C4072.18 376.215 4070.37 376.225 4068.56 376.235C4063.62 376.262 4058.68 376.283 4053.74 376.303C4048.59 376.325 4043.43 376.353 4038.28 376.379C4028.51 376.429 4018.75 376.474 4008.98 376.517C3997.86 376.567 3986.74 376.622 3975.63 376.677C3952.75 376.791 3929.88 376.898 3907 377C3907.45 378.926 3907.9 380.85 3908.36 382.773C3908.62 383.845 3908.87 384.917 3909.13 386.021C3910.2 389.69 3911.7 391.989 3914 395C3914 395.66 3914 396.32 3914 397C3914.66 397 3915.32 397 3916 397C3917.67 398.667 3919.33 400.333 3921 402C3941.59 416.706 3972.46 414.358 3996.37 414.25C3997.55 414.248 3998.73 414.245 3999.94 414.243C4022.62 414.188 4045.15 413.658 4067.62 410.416C4072.06 409.869 4076.54 409.573 4081 410C4082.79 411.789 4082.14 414.449 4082.15 416.865C4082.15 418.747 4082.15 418.747 4082.16 420.667C4082.17 422.048 4082.17 423.428 4082.17 424.809C4082.17 426.215 4082.17 427.621 4082.18 429.027C4082.18 431.979 4082.19 434.931 4082.19 437.882C4082.19 441.67 4082.2 445.457 4082.22 449.245C4082.23 452.151 4082.23 455.056 4082.23 457.962C4082.23 459.358 4082.23 460.755 4082.24 462.152C4082.25 464.103 4082.25 466.054 4082.24 468.006C4082.24 469.117 4082.25 470.229 4082.25 471.375C4082 474 4082 474 4080 476C4077.29 476.746 4074.62 477.403 4071.87 478C4070.39 478.333 4068.91 478.666 4067.43 479C4066.69 479.165 4065.94 479.33 4065.18 479.5C4063.16 479.963 4061.16 480.479 4059.16 481C4054.01 482.297 4048.8 483.147 4043.56 484C4042.62 484.165 4041.67 484.33 4040.69 484.5C4020.57 487.784 4000.21 488.331 3979.86 488.261C3976.17 488.25 3972.49 488.261 3968.8 488.273C3951 488.285 3933.44 487.594 3916 483.813C3915 483.599 3914.01 483.385 3912.98 483.165C3892.64 478.602 3873.52 471.278 3858 457C3857.5 456.541 3857 456.082 3856.48 455.608C3831.44 432.433 3822.54 397.515 3821.09 364.316C3820.85 354.543 3820.86 344.774 3821 335C3821.01 334.268 3821.01 333.537 3821.02 332.783C3821.47 302.802 3829.17 265.744 3851.12 243.625C3852.41 242.413 3853.7 241.204 3855 240C3856.14 238.763 3856.14 238.763 3857.31 237.5C3868.59 227.012 3883.04 218.713 3898 215C3899.42 214.511 3900.84 214.011 3902.25 213.5C3921.12 207.22 3941.17 206.629 3960.87 206.75ZM3924.25 278.625C3923.24 279.071 3922.24 279.517 3921.2 279.977C3920.48 280.314 3919.75 280.652 3919 281C3919 281.66 3919 282.32 3919 283C3918.41 283.242 3917.82 283.485 3917.22 283.734C3910.67 287.472 3907.63 295.302 3905.56 302.188C3904.19 307.21 3904 310.59 3904 316C3941.29 316 3978.58 316 4017 316C4017 304.674 4016.1 295.653 4008.77 286.746C3996.25 274.365 3979.94 273.65 3963.37 273.739C3961 273.75 3958.63 273.739 3956.27 273.727C3945.25 273.715 3934.45 274.011 3924.25 278.625Z" fill="#FF7A4A"/>
<path d="M3657.35 206.739C3660 206.75 3662.64 206.739 3665.29 206.727C3681.05 206.713 3696.94 207.537 3712.31 211.25C3713.23 211.466 3714.14 211.682 3715.09 211.905C3728.71 215.261 3740.8 221.181 3753 228C3753 228.66 3753 229.32 3753 230C3753.68 230.206 3754.36 230.413 3755.06 230.625C3758.92 232.429 3762.08 234.901 3765 238C3765 238.66 3765 239.32 3765 240C3765.58 240.243 3766.16 240.485 3766.76 240.735C3778.24 247.227 3784.25 265.056 3788 277C3788.34 278.047 3788.68 279.094 3789.02 280.172C3797.22 307.899 3799.94 347.253 3790 375C3788.08 376.919 3784.51 376.155 3781.89 376.158C3781.14 376.163 3780.39 376.168 3779.61 376.173C3777.08 376.189 3774.54 376.197 3772 376.206C3770.18 376.215 3768.37 376.225 3766.56 376.236C3761.62 376.263 3756.68 376.284 3751.74 376.304C3746.59 376.325 3741.43 376.353 3736.28 376.38C3726.51 376.43 3716.75 376.474 3706.98 376.518C3695.86 376.567 3684.74 376.622 3673.63 376.677C3650.75 376.791 3627.88 376.898 3605 377C3605.45 378.585 3605.91 380.168 3606.37 381.75C3606.76 383.073 3606.76 383.073 3607.15 384.422C3607.92 386.979 3607.92 386.979 3609.1 389.141C3610 391 3610 391 3610 394C3610.66 394 3611.32 394 3612 394C3612.35 394.701 3612.7 395.403 3613.06 396.125C3619.28 405.348 3631.83 408.744 3642.22 410.942C3654.81 413.365 3667.4 414.153 3680.21 414.168C3681.89 414.174 3681.89 414.174 3683.6 414.181C3687.19 414.19 3690.78 414.19 3694.37 414.188C3695.6 414.188 3696.82 414.188 3698.09 414.188C3720.73 414.172 3743.11 413.655 3765.55 410.416C3770.35 409.837 3775.18 409.59 3780 410C3781 411 3781 411 3781.12 413.512C3781.12 414.629 3781.12 415.746 3781.11 416.897C3781.11 418.158 3781.11 419.419 3781.11 420.719C3781.11 422.106 3781.1 423.492 3781.1 424.879C3781.1 426.29 3781.09 427.701 3781.09 429.112C3781.09 432.833 3781.08 436.553 3781.07 440.273C3781.06 444.067 3781.05 447.861 3781.05 451.654C3781.04 459.103 3781.02 466.552 3781 474C3777.22 475.669 3773.59 477.265 3769.57 478.246C3768.77 478.442 3767.96 478.637 3767.14 478.839C3766.29 479.036 3765.44 479.234 3764.56 479.438C3763.19 479.756 3763.19 479.756 3761.8 480.081C3734.16 486.354 3706.56 488.362 3678.27 488.261C3674.67 488.25 3671.08 488.261 3667.48 488.274C3649.42 488.286 3631.45 487.65 3613.75 483.75C3612.75 483.534 3611.75 483.318 3610.72 483.095C3592.68 479.042 3574.01 472.43 3560 460C3559.18 459.3 3558.36 458.6 3557.52 457.879C3533.31 436.742 3522.45 406.204 3520.28 374.555C3518.8 345.237 3517.45 313.121 3527 285C3527.21 284.366 3527.42 283.733 3527.64 283.08C3531.85 270.508 3537.45 255.517 3547 246C3547.66 246 3548.32 246 3549 246C3549.25 245.414 3549.5 244.827 3549.75 244.223C3551.17 241.69 3552.71 240.29 3554.94 238.438C3557.81 236.034 3557.81 236.034 3560.52 233.453C3572.57 221.623 3590.15 216.182 3606 212C3607.14 211.682 3608.28 211.363 3609.46 211.035C3625.01 207.018 3641.38 206.663 3657.35 206.739ZM3612.7 285.145C3604.78 294.826 3603 303.673 3603 316C3639.96 316 3676.92 316 3715 316C3715.1 304.888 3715.1 304.888 3712 295C3711.55 293.928 3711.09 292.855 3710.62 291.75C3708.16 287.58 3705.65 284.55 3701 283C3701 282.34 3701 281.68 3701 281C3699.26 280.191 3697.51 279.404 3695.75 278.625C3694.78 278.184 3693.8 277.743 3692.8 277.289C3682.74 273.521 3671.96 273.683 3661.37 273.739C3659 273.75 3656.63 273.739 3654.27 273.727C3639.44 273.71 3624.15 274.473 3612.7 285.145Z" fill="#FF7A4A"/>
<path d="M3424.15 91.7971C3425.01 91.7914 3425.87 91.7857 3426.75 91.7798C3428.56 91.7704 3430.38 91.7638 3432.19 91.76C3434.9 91.7503 3437.61 91.7193 3440.32 91.6877C3451.56 91.62 3462.02 92.6507 3473 95.0002C3474.34 95.2715 3475.69 95.5408 3477.03 95.8078C3482.03 96.8065 3486.87 97.922 3491.71 99.5529C3492.92 99.9592 3492.92 99.9592 3494.15 100.374C3495.07 100.684 3495.07 100.684 3496 101C3496.05 109.31 3496.08 117.62 3496.1 125.93C3496.11 129.789 3496.13 133.647 3496.15 137.506C3496.17 141.227 3496.18 144.949 3496.19 148.671C3496.19 150.093 3496.2 151.514 3496.21 152.936C3496.23 154.923 3496.23 156.911 3496.23 158.898C3496.23 160.031 3496.24 161.163 3496.24 162.33C3496 165 3496 165 3494 167C3491.05 166.809 3488.18 166.503 3485.25 166.125C3475.93 165.09 3466.68 164.737 3457.31 164.688C3455.42 164.662 3455.42 164.662 3453.48 164.635C3443.87 164.639 3434.57 165.512 3427 172C3423 177.501 3421.91 182.415 3421.68 189.078C3421.64 190.238 3421.6 191.399 3421.56 192.594C3421.52 193.801 3421.48 195.007 3421.44 196.25C3421.37 198.083 3421.37 198.083 3421.31 199.953C3421.2 202.969 3421.1 205.984 3421 209C3421.92 208.998 3422.85 208.996 3423.8 208.993C3432.5 208.973 3441.2 208.958 3449.89 208.948C3454.37 208.943 3458.84 208.936 3463.31 208.925C3467.62 208.914 3471.93 208.908 3476.24 208.905C3477.89 208.903 3479.54 208.9 3481.19 208.894C3483.49 208.887 3485.79 208.886 3488.09 208.887C3490.06 208.883 3490.06 208.883 3492.07 208.88C3495 209 3495 209 3496 210C3496.09 212.301 3496.12 214.604 3496.11 216.907C3496.11 217.64 3496.11 218.374 3496.11 219.13C3496.11 221.515 3496.11 223.9 3496.1 226.285C3496.1 227.754 3496.1 229.222 3496.09 230.691C3496.09 236.148 3496.08 241.605 3496.06 247.063C3496.04 259.252 3496.02 271.441 3496 284C3471.25 284 3446.5 284 3421 284C3421 349.67 3421 415.34 3421 483C3391.96 483 3362.92 483 3333 483C3333 417.33 3333 351.66 3333 284C3319.8 284 3306.6 284 3293 284C3293 259.25 3293 234.5 3293 209C3306.2 209 3319.4 209 3333 209C3332.92 199.144 3332.92 199.144 3332.82 189.289C3332.77 177.011 3333.74 164.932 3337.12 153.063C3337.34 152.32 3337.55 151.577 3337.76 150.811C3341.26 139.14 3346.8 128.08 3355 119C3355.49 118.456 3355.97 117.912 3356.48 117.352C3357.81 115.938 3357.81 115.938 3360 114C3360.66 114 3361.32 114 3362 114C3362.5 112.515 3362.5 112.515 3363 111C3365.06 110.313 3365.06 110.313 3367 110C3367 109.34 3367 108.68 3367 108C3385.41 98.4833 3403.14 91.9084 3424.15 91.7971Z" fill="#FF7A4A"/>
<path d="M3200.41 91.7971C3201.29 91.7914 3202.17 91.7857 3203.08 91.7798C3204.94 91.7704 3206.81 91.7638 3208.67 91.76C3211.46 91.7503 3214.26 91.7193 3217.05 91.6877C3228.1 91.6219 3238.24 92.4454 3249 95.0002C3249.97 95.2256 3250.95 95.451 3251.95 95.6833C3254.4 96.2729 3256.82 96.9053 3259.25 97.5627C3260.05 97.7709 3260.85 97.9791 3261.68 98.1935C3265.37 99.1761 3268.59 100.259 3272 102C3272.05 110.18 3272.08 118.359 3272.1 126.539C3272.11 130.337 3272.13 134.135 3272.15 137.933C3272.17 141.596 3272.18 145.26 3272.19 148.923C3272.19 150.322 3272.2 151.722 3272.21 153.121C3272.23 155.078 3272.23 157.034 3272.23 158.99C3272.23 160.105 3272.24 161.219 3272.24 162.368C3272 165 3272 165 3270 167C3267.05 166.809 3264.18 166.503 3261.25 166.125C3251.93 165.09 3242.68 164.737 3233.31 164.688C3231.42 164.662 3231.42 164.662 3229.48 164.635C3220.6 164.639 3212.87 165.702 3205 170C3203.54 171.455 3203.54 171.455 3202.38 173.188C3201.97 173.738 3201.57 174.289 3201.15 174.856C3195.58 185.251 3197.45 197.741 3197 209C3221.75 209 3246.5 209 3272 209C3272 233.75 3272 258.5 3272 284C3247.25 284 3222.5 284 3197 284C3197 349.67 3197 415.34 3197 483C3167.96 483 3138.92 483 3109 483C3109 417.33 3109 351.66 3109 284C3095.8 284 3082.6 284 3069 284C3069 259.25 3069 234.5 3069 209C3082.2 209 3095.4 209 3109 209C3108.96 204.937 3108.92 200.874 3108.88 196.688C3108.82 181.158 3109.43 165.944 3114 151C3114.3 149.996 3114.6 148.992 3114.91 147.957C3117 141.288 3119.68 135.149 3123 129C3123.66 129 3124.32 129 3125 129C3125.19 128.34 3125.37 127.68 3125.56 127C3132.43 112.658 3148.73 103.509 3163.06 98.1877C3175.36 94.0898 3187.47 91.8635 3200.41 91.7971Z" fill="#FF7A4A"/>
<path d="M2902.28 206.739C2905.06 206.75 2907.85 206.739 2910.63 206.727C2926.71 206.713 2942.83 207.497 2958.5 211.375C2959.43 211.598 2960.35 211.821 2961.31 212.05C2963.88 212.68 2966.44 213.334 2969 214C2970.12 214.285 2971.23 214.57 2972.39 214.863C2986.71 219.08 3001.59 227.194 3012 238C3012 238.66 3012 239.32 3012 240C3012.59 240.248 3013.19 240.495 3013.8 240.75C3016.33 242.19 3017.54 243.652 3019.25 246C3020.03 247.052 3020.03 247.052 3020.83 248.125C3022 250 3022 250 3022 252C3022.66 252 3023.32 252 3024 252C3051.12 299.076 3051.06 362.782 3037.41 414.223C3033.49 428.275 3026.84 441.201 3017 452C3016.57 452.481 3016.13 452.962 3015.69 453.457C2993.46 477.851 2959.88 485.969 2928 488C2921.15 488.278 2914.31 488.29 2907.45 488.261C2904.44 488.25 2901.42 488.261 2898.4 488.274C2882.15 488.287 2866.14 487.34 2850.25 483.75C2849.28 483.535 2848.32 483.321 2847.33 483.1C2839.13 481.19 2831.63 478.552 2824 475C2822.4 474.273 2822.4 474.273 2820.77 473.531C2814.14 470.373 2807.6 466.809 2802 462C2802 461.34 2802 460.68 2802 460C2801.46 459.794 2800.93 459.588 2800.37 459.375C2797.08 457.468 2794.41 454.952 2792 452C2792 451.34 2792 450.68 2792 450C2791.34 450 2790.68 450 2790 450C2761.28 415.614 2761.09 360.428 2764.69 318.188C2766.1 303.978 2768.62 289.268 2774 276C2774.46 274.764 2774.92 273.528 2775.39 272.254C2778.22 264.884 2781.26 258.352 2786 252C2787.01 250.538 2787.01 250.538 2788.05 249.047C2793.6 241.133 2793.6 241.133 2797 240C2797.29 239.406 2797.57 238.812 2797.87 238.199C2803.3 227.623 2822.38 219.823 2833.04 216.207C2837.99 214.639 2842.98 213.283 2848 212C2849.2 211.683 2850.4 211.366 2851.64 211.039C2868.15 207.087 2885.38 206.662 2902.28 206.739ZM2862 297C2850.18 310.544 2849.61 330.192 2849.69 347.25C2849.69 347.925 2849.69 348.599 2849.69 349.295C2849.8 367.08 2850.7 385.171 2863.31 399.063C2876.08 410.326 2894.25 411.553 2910.49 410.785C2924.04 409.926 2936.9 407.921 2947 398C2958.88 384.13 2959.41 364.626 2959.31 347.25C2959.31 346.552 2959.31 345.854 2959.3 345.134C2959.21 328.038 2958.83 309.489 2946.41 296.242C2934.11 284.819 2920.72 283.649 2904.44 283.75C2903.19 283.742 2901.94 283.735 2900.65 283.727C2886.19 283.757 2872.62 286.379 2862 297Z" fill="#FF7A4A"/>
<path d="M2625.37 122.812C2626.98 122.812 2626.98 122.812 2628.61 122.812C2659.22 122.837 2689.94 123.805 2720 130C2720.99 130.204 2720.99 130.204 2722 130.411C2733.11 132.703 2733.11 132.703 2737 134C2737 158.42 2737 182.84 2737 208C2732.64 208.872 2731.35 209.112 2727.39 208.144C2726.49 207.936 2725.58 207.727 2724.65 207.513C2723.19 207.166 2723.19 207.166 2721.69 206.812C2698.45 201.679 2674.79 199.297 2651 199C2649.94 198.985 2648.87 198.97 2647.78 198.954C2640.52 198.865 2633.26 198.879 2626 199C2624.8 199.019 2624.8 199.019 2623.58 199.038C2603.57 199.469 2583.27 202.487 2568.28 216.621C2545.37 240.998 2551.33 292.152 2552.26 322.584C2553.08 346.093 2554.21 368.205 2565.55 389.277C2567 392 2567 392 2568 395C2570 396.209 2570 396.209 2572 397C2572 397.66 2572 398.32 2572 399C2573.09 399.419 2573.09 399.419 2574.21 399.848C2577.6 401.247 2580.78 402.95 2584.01 404.683C2601.95 412.585 2622.46 412.522 2641.69 412.375C2642.75 412.371 2643.81 412.367 2644.9 412.363C2672.38 412.242 2699.88 410.612 2726.73 404.364C2727.63 404.162 2728.52 403.961 2729.44 403.754C2730.24 403.562 2731.04 403.371 2731.87 403.174C2734 403 2734 403 2737 405C2737.36 407.974 2737.36 407.974 2737.34 411.836C2737.34 412.539 2737.34 413.241 2737.34 413.965C2737.34 416.292 2737.32 418.618 2737.29 420.945C2737.29 422.557 2737.28 424.168 2737.28 425.779C2737.27 430.024 2737.24 434.269 2737.21 438.514C2737.18 442.844 2737.16 447.174 2737.15 451.504C2737.11 460.003 2737.06 468.501 2737 477C2733.09 478.128 2729.24 479.23 2725.24 479.965C2724.38 480.123 2723.52 480.282 2722.63 480.446C2692.07 485.895 2661.92 488.365 2630.86 488.261C2627.43 488.249 2623.99 488.256 2620.55 488.267C2599.47 488.327 2578.29 487.986 2557.56 483.75C2556.48 483.534 2555.4 483.319 2554.29 483.097C2537.46 479.584 2518.3 473.362 2505 462C2505 461.34 2505 460.68 2505 460C2504.14 459.629 2504.14 459.629 2503.27 459.25C2500.65 457.807 2498.85 456.118 2496.75 454C2496.04 453.299 2495.34 452.597 2494.61 451.875C2493 450 2493 450 2493 448C2492.34 448 2491.68 448 2491 448C2481.58 435.98 2475.09 420.575 2471 406C2470.79 405.273 2470.59 404.547 2470.37 403.798C2463.02 377.416 2460.82 349.607 2460.87 322.312C2460.87 320.755 2460.87 319.199 2460.86 317.642C2460.86 314.405 2460.86 311.168 2460.87 307.931C2460.88 303.826 2460.87 299.722 2460.87 295.618C2460.86 292.41 2460.86 289.203 2460.87 285.996C2460.87 284.485 2460.87 282.973 2460.86 281.461C2460.85 268.839 2461.25 256.285 2463.02 243.765C2463.11 243.083 2463.21 242.401 2463.31 241.698C2463.61 239.547 2463.93 237.398 2464.25 235.25C2464.36 234.508 2464.47 233.766 2464.58 233.002C2467.15 215.799 2471.07 199.97 2478 184C2478.56 182.693 2479.12 181.386 2479.68 180.078C2480.12 179.062 2480.55 178.046 2481 177C2481.66 177 2482.32 177 2483 177C2483.1 176.447 2483.21 175.894 2483.31 175.324C2485.9 166.581 2493.1 158.692 2500 153C2500.66 153 2501.32 153 2502 153C2502 152.34 2502 151.68 2502 151C2514.17 140.207 2530.37 133.643 2546 130C2546.79 129.816 2547.58 129.632 2548.39 129.442C2560.49 126.69 2572.63 124.915 2585 124C2586.17 123.912 2587.34 123.825 2588.54 123.734C2600.82 122.882 2613.08 122.802 2625.37 122.812Z" fill="#FF7A4A"/>
<path d="M2117 0C2117.27 1.87196 2117.27 1.87196 2117.55 3.78174C2122.5 42.378 2122.5 42.378 2135 79C2135.44 79.9539 2135.88 80.9078 2136.33 81.8906C2139.67 88.9182 2143.67 95.3892 2147.95 101.871C2149.21 103.791 2150.43 105.738 2151.58 107.723C2152.91 109.852 2154.2 111.277 2156 113C2157.26 114.576 2158.51 116.161 2159.75 117.75C2168.93 129.028 2179.48 139.136 2191 148C2192.12 148.875 2193.24 149.75 2194.35 150.625C2201.52 156.202 2208.86 161.288 2216.5 166.188C2217.1 166.576 2217.71 166.965 2218.33 167.365C2221.38 169.325 2224.44 171.282 2227.49 173.234C2231 175.478 2234.5 177.736 2238 180C2238.62 180.404 2239.25 180.807 2239.9 181.223C2257.73 192.76 2274.55 206.443 2288 223C2288 223.66 2288 224.32 2288 225C2288.99 225.33 2289.98 225.66 2291 226C2291.99 227.392 2292.98 228.794 2293.89 230.243C2295.03 232.056 2296.26 233.786 2297.51 235.523C2312.2 256.097 2320.1 276.645 2322 302C2322.99 302 2323.98 302 2325 302C2325.26 301.434 2325.52 300.868 2325.79 300.285C2327.11 297.793 2328.68 295.688 2330.37 293.438C2336.4 284.857 2338.37 275.88 2340.27 265.684C2341.25 260.711 2342.57 255.862 2344 251C2353.9 255.095 2359.87 271.003 2365 280C2365.55 280.954 2365.55 280.954 2366.11 281.927C2372.02 292.184 2376.21 302.8 2380 314C2380.39 315.143 2380.78 316.287 2381.18 317.465C2397.92 369.109 2394.04 429.337 2370 478C2369.7 478.618 2369.39 479.237 2369.08 479.874C2365.58 487.025 2361.96 494.094 2358 501C2357.34 501 2356.68 501 2356 501C2355.74 501.718 2355.49 502.436 2355.23 503.176C2351.4 511.986 2344.02 519.589 2338 527C2336.95 528.381 2336.95 528.381 2335.89 529.789C2334.95 530.883 2334.95 530.883 2334 532C2333.34 532 2332.68 532 2332 532C2331.6 532.959 2331.6 532.959 2331.19 533.938C2330 536 2330 536 2327 537C2326.67 537.66 2326.34 538.32 2326 539C2325.67 539.66 2325.34 540.32 2325 541C2324.01 541.33 2323.02 541.66 2322 542C2322 542.66 2322 543.32 2322 544C2319.03 546.756 2315.82 549.209 2312.64 551.71C2311.03 552.977 2309.43 554.256 2307.83 555.535C2286.19 572.69 2286.19 572.69 2274.87 574.5C2272 574 2272 574 2269.06 572.062C2266.57 568.356 2266.46 566.607 2267.24 562.309C2268.61 558.134 2271.14 555.271 2274 552C2275.4 550.354 2276.81 548.703 2278.21 547.052C2279.17 545.915 2280.15 544.782 2281.13 543.655C2283.22 541.224 2285.07 538.875 2286.71 536.105C2287.13 535.411 2287.56 534.716 2288 534C2288.66 534 2289.32 534 2290 534C2290.31 533.216 2290.62 532.432 2290.94 531.625C2292 529 2292 529 2293 527C2293.66 527 2294.32 527 2295 527C2295.28 526.263 2295.56 525.525 2295.84 524.766C2296.9 522.242 2298.06 520.071 2299.5 517.75C2300.02 516.886 2300.55 516.023 2301.09 515.133C2302.12 513.446 2303.15 511.759 2304.17 510.073C2309.52 501.286 2314.48 492.705 2318 483C2318.27 482.269 2318.54 481.538 2318.81 480.785C2320.98 474.89 2323.03 468.962 2325 463C2325.39 461.811 2325.79 460.623 2326.19 459.398C2335.95 426.606 2337.07 387.776 2323 356C2322.29 354.699 2321.56 353.408 2320.81 352.129C2319 349 2319 349 2319 347C2318.01 346.67 2317.02 346.34 2316 346C2315.28 345.237 2314.55 344.474 2313.81 343.688C2310.47 340.494 2307.2 338.817 2303 337C2302.07 336.587 2301.14 336.175 2300.19 335.75C2292.16 333.861 2285.53 334.647 2278.09 338.125C2276 339 2276 339 2273 339C2273 339.66 2273 340.32 2273 341C2268.61 344 2268.61 344 2266 344C2266 344.66 2266 345.32 2266 346C2264.49 347.262 2264.49 347.262 2262.44 348.688C2251.47 356.681 2244.13 367.011 2238 379C2237.64 379.666 2237.28 380.333 2236.91 381.02C2228.72 396.587 2224.41 414 2220.24 430.98C2218.68 437.323 2217.06 443.643 2215.31 449.938C2215.12 450.628 2214.93 451.318 2214.73 452.029C2213.32 457.077 2211.68 462.037 2210 467C2209.74 467.774 2209.48 468.547 2209.22 469.344C2205.45 480.601 2201.27 491.368 2196 502C2195.18 503.736 2195.18 503.736 2194.35 505.508C2188.5 517.761 2181.39 528.984 2172.01 538.852C2169.93 541.02 2169.93 541.02 2167.94 543.598C2165.52 546.591 2163.06 548.674 2160 551C2159.34 551 2158.68 551 2158 551C2158 551.66 2158 552.32 2158 553C2137.28 571.381 2110.7 575.594 2084 574C2078.46 573.29 2073.29 571.792 2068 570C2067.05 569.711 2066.1 569.422 2065.12 569.125C2056.93 566.451 2049.5 562.17 2042 558C2042 557.34 2042 556.68 2042 556C2041.3 555.773 2040.6 555.546 2039.87 555.312C2034.28 552.757 2030.28 548.307 2026 544C2024.82 542.837 2023.65 541.674 2022.48 540.512C2008.54 526.699 1995.58 512.26 1986 495C1985.37 493.897 1984.74 492.793 1984.08 491.656C1970.31 467.534 1960.31 440.742 1959.31 412.688C1959.27 411.67 1959.24 410.652 1959.2 409.604C1958.56 389.198 1962.48 369.586 1971 351C1971.44 349.988 1971.89 348.976 1972.35 347.934C1975.7 340.715 1975.7 340.715 1980 339C1981.5 340.066 1981.5 340.066 1983 342C1983.19 345.152 1983.19 345.152 1983 348.938C1982.69 360.07 1984.87 371.37 1992.56 379.812C1993.77 380.895 1993.77 380.895 1995 382C1995.48 382.499 1995.95 382.998 1996.44 383.512C2003.25 390.023 2014.56 391.769 2023.59 392.152C2032.04 391.775 2038.42 389.176 2045 384C2045.66 384 2046.32 384 2047 384C2047.4 383.165 2047.4 383.165 2047.81 382.312C2049.11 379.788 2050.42 377.363 2052 375C2052.66 375 2053.32 375 2054 375C2054.12 374.29 2054.25 373.579 2054.38 372.848C2055.01 369.928 2055.94 367.254 2056.94 364.438C2067.96 329.052 2059.24 288.243 2043.61 255.716C2028.21 223.165 2022.91 185.486 2029 150C2029.13 149.165 2029.27 148.331 2029.41 147.471C2031.31 135.672 2033.76 124.26 2037.4 112.877C2037.97 111.087 2038.5 109.286 2039.03 107.484C2044 90.5694 2051.51 74.1679 2062.37 60.1992C2063.86 58.1917 2064.97 56.2676 2066 54C2066.66 54 2067.32 54 2068 54C2068.23 53.2949 2068.47 52.5898 2068.71 51.8633C2070.25 48.4422 2072.25 46.0381 2074.69 43.1875C2075.13 42.6634 2075.58 42.1393 2076.04 41.5994C2077.35 40.0606 2078.68 38.5302 2080 37C2080.67 36.2137 2081.34 35.4273 2082.04 34.6172C2085.23 30.9231 2088.55 27.4512 2092 24C2093.46 22.3804 2094.92 20.7547 2096.37 19.125C2099.6 15.5147 2102.9 12.0494 2106.37 8.67188C2108.63 6.34847 2110.64 3.83855 2112.64 1.28516C2114 0 2114 0 2117 0ZM2213 297C2212.13 297.171 2211.26 297.343 2210.37 297.52C2193.28 301.124 2177.26 310.275 2163.25 320.422C2161 322 2161 322 2158.21 323.578C2157.12 324.282 2157.12 324.282 2156 325C2156 325.66 2156 326.32 2156 327C2155.28 327.227 2154.55 327.454 2153.81 327.688C2151.11 328.95 2149.57 330.245 2147.56 332.402C2145.58 334.431 2143.45 336.258 2141.31 338.125C2135.82 343.035 2130.62 348.254 2126 354C2126 354.66 2126 355.32 2126 356C2125.34 356 2124.68 356 2124 356C2117.77 363.294 2112.86 371.761 2108 380C2107.63 380.626 2107.25 381.251 2106.87 381.896C2101.28 391.321 2096.76 400.701 2093 411C2092.56 412.186 2092.12 413.372 2091.66 414.594C2090.4 418.05 2089.19 421.518 2088 425C2087.66 425.976 2087.32 426.952 2086.98 427.957C2083.73 437.858 2081.65 448.04 2079.57 458.235C2079.21 459.951 2078.85 461.666 2078.48 463.378C2073.43 486.782 2074.87 512.402 2086 534C2086.66 534 2087.32 534 2088 534C2088.24 534.758 2088.47 535.516 2088.72 536.297C2090.98 541.06 2095.32 542.926 2100 545C2107.22 546.892 2114.7 546.376 2121.28 542.738C2123.58 541.234 2125.79 539.647 2128 538C2128.66 537.535 2129.31 537.069 2129.99 536.59C2138.39 530.532 2146.89 523.435 2153 515C2153 514.34 2153 513.68 2153 513C2153.66 513 2154.32 513 2155 513C2156.81 510.535 2158.48 508.077 2160.12 505.5C2160.86 504.345 2160.86 504.345 2161.61 503.166C2176.9 478.843 2185.71 450.996 2192.21 423.172C2193 420 2193 420 2193.89 417.328C2195.21 413.353 2196.3 409.334 2197.41 405.294C2201.63 389.88 2206.21 375.687 2214.05 361.724C2214.91 360.156 2215.72 358.559 2216.53 356.961C2219.67 350.767 2223.4 345.985 2228.24 340.996C2230.22 339.193 2230.22 339.193 2230 337C2230.99 336.67 2231.98 336.34 2233 336C2233 335.34 2233 334.68 2233 334C2233.55 333.756 2234.11 333.513 2234.68 333.262C2237.48 331.74 2239.69 329.871 2242.12 327.812C2245.77 324.773 2249.45 321.923 2253.37 319.25C2259.61 315.006 2259.61 315.006 2264 309C2264.36 305.643 2264.44 303.706 2262.62 300.812C2249.96 292.07 2227.25 293.175 2213 297Z" fill="#FF7A4A"/>
<path d="M2221 86C2222.98 86.99 2222.98 86.99 2225 88C2225 88.66 2225 89.32 2225 90C2225.73 90.2643 2226.47 90.5285 2227.23 90.8008C2229.99 91.997 2231.99 93.3599 2234.37 95.1875C2246.71 103.948 2261.63 108.722 2275.67 114.058C2277.85 114.938 2279.92 115.919 2282 117C2282 117.66 2282 118.32 2282 119C2282.72 119.248 2283.44 119.495 2284.19 119.75C2290.41 122.518 2294.42 127.322 2298 133C2298 133.66 2298 134.32 2298 135C2298.66 135 2299.32 135 2300 135C2307.92 150.081 2308.88 166.324 2303.94 182.5C2303.31 184.34 2302.67 186.176 2302 188C2300.35 188.33 2298.7 188.66 2297 189C2296.65 187.783 2296.3 186.566 2295.94 185.312C2292.83 176.053 2287.28 162.642 2278 158C2278 157.34 2278 156.68 2278 156C2277.34 155.773 2276.68 155.546 2276 155.312C2272.97 153.986 2270.33 152.33 2267.55 150.535C2264.99 148.995 2262.36 147.645 2259.69 146.301C2242.9 137.755 2231.27 126.122 2225 108.066C2224.5 106.549 2224.5 106.549 2224 105C2223.68 104.102 2223.36 103.203 2223.03 102.277C2221.15 96.6616 2220.71 91.916 2221 86Z" fill="#FF7A4A"/>
<path d="M1744.51 206.832C1745.89 206.829 1747.27 206.825 1748.65 206.822C1751.54 206.816 1754.42 206.814 1757.3 206.815C1760.2 206.815 1763.1 206.808 1766 206.794C1789.51 206.685 1812.77 207.391 1836 211.375C1837.32 211.595 1838.64 211.815 1839.96 212.035C1862.51 215.877 1862.51 215.877 1872.21 219.562C1873.28 219.966 1873.28 219.966 1874.37 220.379C1874.91 220.584 1875.45 220.789 1876 221C1876.02 229.388 1876.04 237.777 1876.05 246.166C1876.06 250.061 1876.06 253.956 1876.08 257.852C1876.09 261.612 1876.09 265.373 1876.09 269.134C1876.1 270.567 1876.1 272 1876.11 273.433C1876.11 275.444 1876.11 277.455 1876.11 279.465C1876.12 280.609 1876.12 281.753 1876.12 282.931C1876.01 285.741 1875.64 288.268 1875 291C1869.48 290.613 1864.46 289.661 1859.12 288.187C1834.89 281.532 1810.11 278.594 1785 278C1783.69 277.967 1783.69 277.967 1782.35 277.933C1772.07 277.713 1761.87 277.913 1751.62 278.812C1750.78 278.882 1749.93 278.952 1749.05 279.025C1743.33 279.597 1736.64 280.356 1732.4 284.601C1731 286 1731 286 1729 286C1728.04 291.712 1727.33 296.653 1730 302C1739.67 310.975 1758.64 312.32 1771.17 314.324C1774.48 314.907 1777.65 315.646 1780.9 316.484C1784.78 317.436 1788.7 318.141 1792.62 318.875C1793.53 319.048 1794.44 319.222 1795.38 319.401C1800.09 320.294 1804.79 321.14 1809.52 321.902C1826.01 324.606 1842.35 328.695 1857 337C1858.33 337.673 1859.66 338.342 1861 339C1861 339.66 1861 340.32 1861 341C1862.09 341.363 1862.09 341.363 1863.2 341.734C1873.45 346.361 1878.98 357.063 1883 367C1885.94 375.587 1887.15 384.065 1887.17 393.137C1887.17 393.897 1887.17 394.658 1887.18 395.442C1887.18 397.044 1887.19 398.647 1887.19 400.25C1887.19 402.663 1887.21 405.077 1887.22 407.49C1887.29 425.725 1884.92 443.481 1873 458C1872.45 458.706 1871.91 459.413 1871.35 460.141C1856.19 478.823 1829.72 483.782 1807.03 486.334C1803.99 486.62 1800.94 486.871 1797.89 487.101C1796.77 487.186 1795.65 487.271 1794.5 487.358C1782.29 488.213 1770.11 488.309 1757.87 488.25C1756.15 488.245 1756.15 488.245 1754.39 488.24C1670.93 487.978 1670.93 487.978 1635 476C1634.98 466.89 1634.96 457.781 1634.95 448.671C1634.94 444.442 1634.94 440.212 1634.92 435.983C1634.91 431.904 1634.91 427.826 1634.91 423.747C1634.9 422.188 1634.9 420.629 1634.89 419.069C1634.89 416.893 1634.89 414.716 1634.89 412.539C1634.88 411.298 1634.88 410.057 1634.88 408.778C1635 406 1635 406 1636 405C1642.29 405.431 1648.24 406.657 1654.38 408.069C1669.51 411.553 1684.53 413.691 1700 415C1700.78 415.07 1701.56 415.141 1702.36 415.214C1713.4 416.183 1724.49 416.098 1735.56 416.125C1736.3 416.128 1737.03 416.13 1737.79 416.133C1745.9 416.156 1753.98 416.025 1762.08 415.574C1763.09 415.52 1763.09 415.52 1764.12 415.465C1773.56 414.879 1783.4 414.041 1791 408C1792.95 405.174 1793.27 402.9 1793.25 399.5C1793.26 398.747 1793.26 397.994 1793.27 397.219C1792.95 394.59 1792.54 393.166 1791 391C1786.66 388.495 1782.61 387.306 1777.71 386.351C1777.01 386.214 1776.32 386.076 1775.6 385.935C1773.34 385.49 1771.08 385.057 1768.81 384.625C1767.23 384.316 1765.65 384.006 1764.06 383.695C1754.72 381.871 1745.36 380.14 1736 378.437C1695.9 371.095 1695.9 371.095 1680 364C1679.33 363.704 1678.66 363.407 1677.97 363.102C1661.22 355.591 1646.82 344.661 1640 327C1631.98 301.93 1631.84 271.351 1643.3 247.273C1644.46 245.126 1645.69 243.059 1647 241C1647.37 240.381 1647.75 239.762 1648.13 239.125C1649.02 237.705 1650 236.344 1651 235C1651.66 235 1652.32 235 1653 235C1653.27 234.397 1653.53 233.793 1653.8 233.172C1659.48 222.856 1677.85 216.904 1688.5 213.661C1706.78 208.535 1725.6 206.848 1744.51 206.832Z" fill="#FF7A4A"/>
<path d="M1346.2 206.739C1348.5 206.75 1350.79 206.739 1353.09 206.727C1375.8 206.703 1393.82 212.561 1411 227.789C1413.1 230.109 1414.04 232.047 1415 235C1415.66 235 1416.32 235 1417 235C1418.11 237.164 1419.21 239.331 1420.31 241.5C1420.62 242.101 1420.93 242.701 1421.25 243.32C1423.5 247.782 1425.31 252.295 1427 257C1427.53 255.915 1428.06 254.829 1428.61 253.711C1429.32 252.266 1430.04 250.82 1430.75 249.375C1431.1 248.662 1431.45 247.949 1431.8 247.215C1440.45 229.768 1453.68 218.42 1472 212C1472.81 211.705 1473.61 211.41 1474.45 211.106C1486.9 206.934 1500.17 206.648 1513.17 206.684C1515.56 206.688 1517.96 206.664 1520.35 206.639C1537.47 206.569 1553.24 209.988 1568 219C1568.94 219.563 1568.94 219.563 1569.89 220.137C1571.3 221.025 1572.66 222.004 1574 223C1574 223.66 1574 224.32 1574 225C1574.84 225.371 1574.84 225.371 1575.69 225.75C1589.29 233.1 1596.85 249.604 1601.31 263.75C1601.89 265.829 1602.46 267.912 1603 270C1603.27 270.972 1603.55 271.944 1603.83 272.945C1608.81 291.335 1609.16 310.472 1609.11 329.4C1609.11 331.087 1609.11 332.774 1609.11 334.461C1609.11 338.991 1609.11 343.521 1609.1 348.051C1609.1 352.803 1609.09 357.556 1609.09 362.308C1609.09 371.286 1609.08 380.263 1609.07 389.241C1609.06 401.388 1609.05 413.535 1609.05 425.681C1609.04 444.788 1609.02 463.894 1609 483C1579.3 483 1549.6 483 1519 483C1517.86 439.797 1517.86 439.798 1517.83 419.679C1517.82 414.634 1517.8 409.589 1517.77 404.545C1517.73 395.258 1517.69 385.972 1517.67 376.686C1517.66 370.119 1517.63 363.552 1517.59 356.986C1517.58 354.522 1517.58 352.058 1517.58 349.595C1517.98 321.39 1517.98 321.39 1505.31 297.188C1493.22 289.201 1478.87 288.635 1464.88 291.277C1455.53 293.625 1451.12 297.134 1445.88 305.313C1442.7 311.964 1442.01 319.761 1441 327C1440.75 328.604 1440.75 328.604 1440.49 330.241C1439.7 336.632 1439.82 343.064 1439.79 349.494C1439.79 350.954 1439.78 352.413 1439.76 353.872C1439.74 357.814 1439.72 361.755 1439.7 365.697C1439.67 369.823 1439.65 373.95 1439.62 378.077C1439.57 385.882 1439.53 393.687 1439.48 401.493C1439.42 412.047 1439.36 422.6 1439.29 433.154C1439.19 449.769 1439.1 466.385 1439 483C1409.3 483 1379.6 483 1349 483C1348.96 472.56 1348.93 462.12 1348.89 451.363C1348.86 444.714 1348.83 438.065 1348.79 431.416C1348.74 420.883 1348.69 410.35 1348.65 399.817C1348.63 392.142 1348.6 384.467 1348.55 376.793C1348.53 372.738 1348.51 368.684 1348.5 364.629C1349.41 334.506 1349.41 334.506 1341.87 305.84C1341 304 1341 304 1340.51 301.824C1340.34 301.222 1340.17 300.62 1340 300C1338.03 298.85 1338.03 298.85 1336 298C1335.67 297.34 1335.34 296.68 1335 296C1321.97 289.027 1306.17 288.28 1292 292C1289.12 293.131 1286.69 294.434 1284 296C1283.29 296.329 1282.58 296.657 1281.85 296.996C1279.14 298.465 1278.99 300.1 1278 303C1277.7 303.594 1277.4 304.189 1277.1 304.801C1271.13 316.763 1270.55 329.907 1270.57 343.023C1270.56 344.562 1270.55 346.102 1270.54 347.641C1270.51 351.768 1270.5 355.895 1270.49 360.022C1270.48 364.354 1270.46 368.686 1270.43 373.018C1270.39 381.199 1270.36 389.379 1270.34 397.56C1270.31 408.631 1270.25 419.701 1270.2 430.772C1270.11 448.181 1270.06 465.591 1270 483C1239.97 483 1209.94 483 1179 483C1178.98 448.238 1178.96 413.477 1178.95 378.715C1178.95 374.616 1178.95 370.516 1178.95 366.417C1178.94 365.601 1178.94 364.784 1178.94 363.944C1178.94 350.71 1178.93 337.477 1178.92 324.244C1178.91 310.676 1178.91 297.108 1178.91 283.54C1178.9 275.161 1178.9 266.782 1178.89 258.403C1178.89 252.665 1178.89 246.927 1178.89 241.189C1178.89 237.874 1178.89 234.558 1178.88 231.243C1178.88 227.657 1178.88 224.071 1178.88 220.484C1178.88 219.425 1178.87 218.366 1178.87 217.274C1178.87 216.321 1178.88 215.369 1178.88 214.387C1178.88 213.143 1178.88 213.143 1178.88 211.875C1179 210 1179 210 1180 209C1182.65 208.905 1185.27 208.875 1187.92 208.887C1188.75 208.886 1189.57 208.886 1190.43 208.886C1193.18 208.887 1195.94 208.895 1198.69 208.902C1200.6 208.904 1202.5 208.906 1204.4 208.907C1209.43 208.911 1214.45 208.92 1219.47 208.931C1224.59 208.942 1229.71 208.946 1234.83 208.951C1244.89 208.962 1254.94 208.979 1265 209C1265.33 210.408 1265.65 211.817 1265.97 213.226C1266.15 214.01 1266.33 214.795 1266.52 215.603C1267.27 219.348 1267.55 223.095 1267.82 226.902C1267.88 227.706 1267.94 228.51 1268 229.338C1268.2 231.871 1268.38 234.404 1268.56 236.938C1268.75 239.496 1268.94 242.054 1269.13 244.612C1269.25 246.195 1269.37 247.779 1269.48 249.363C1269.72 253.31 1269.72 253.31 1271 257C1271.35 255.966 1271.35 255.966 1271.7 254.91C1274.88 245.744 1278.99 237.639 1285 230C1285.66 230 1286.32 230 1287 230C1287.27 229.361 1287.54 228.721 1287.81 228.063C1289 226 1289 226 1292 225C1292.5 223.515 1292.5 223.515 1293 222C1309.06 209.934 1326.57 206.63 1346.2 206.739Z" fill="#FF7A4A"/>
<path d="M1003.38 206.739C1007.13 206.75 1010.87 206.739 1014.62 206.727C1033.36 206.715 1052.09 207.31 1070.5 211.125C1071.53 211.337 1072.56 211.549 1073.62 211.767C1097.18 216.905 1119.38 226.33 1134.04 246.371C1135 248 1135 248 1135 250C1135.66 250 1136.32 250 1137 250C1146.13 267.236 1151.59 284.45 1154.63 303.75C1154.75 304.511 1154.87 305.272 1155 306.056C1157.01 319.545 1157.15 333.273 1157.11 346.883C1157.11 348.383 1157.11 349.883 1157.11 351.383C1157.11 355.395 1157.11 359.406 1157.1 363.417C1157.1 367.632 1157.09 371.846 1157.09 376.061C1157.09 384.015 1157.08 391.969 1157.07 399.923C1157.06 410.69 1157.05 421.457 1157.05 432.224C1157.04 449.15 1157.02 466.075 1157 483C1129.61 483 1102.22 483 1074 483C1073.01 474.75 1072.02 466.5 1071 458C1069.47 459.65 1067.95 461.3 1066.38 463C1055.95 473.658 1042.98 478.689 1029 483C1028 483.319 1026.99 483.637 1025.96 483.965C1011.14 488.166 995.532 488.191 980.25 488.25C979.22 488.258 979.22 488.258 978.169 488.266C965.038 488.344 951.756 487.551 939.063 483.938C938.325 483.728 937.588 483.518 936.828 483.302C917.393 477.378 902.35 465.544 892 448C879.667 423.546 877.732 390.742 886.188 364.875C890.274 354.128 896.616 344.896 905 337C905.99 336.67 906.98 336.34 908 336C908 335.34 908 334.68 908 334C912.385 331 912.385 331 915 331C915 330.34 915 329.68 915 329C949.63 310.869 986.591 312.692 1024.65 312.863C1029.78 312.884 1034.91 312.893 1040.04 312.903C1050.02 312.924 1060.01 312.958 1070 313C1069.1 310.282 1068.19 307.57 1067.27 304.86C1067.02 304.097 1066.76 303.334 1066.51 302.549C1063.55 293.93 1058.52 287.702 1050.56 283.125C1037.2 277.226 1021.69 275.851 1007.25 275.832C1006.35 275.829 1005.45 275.826 1004.53 275.822C1002.64 275.817 1000.75 275.815 998.863 275.815C996.035 275.813 993.207 275.795 990.379 275.776C978.773 275.739 967.496 276.437 956 278C954.112 278.243 954.112 278.243 952.185 278.491C948.682 278.951 945.185 279.439 941.688 279.938C940.542 280.094 939.397 280.251 938.217 280.412C931.333 281.389 924.609 282.682 917.851 284.319C916.91 284.544 915.969 284.768 915 285C914.197 285.195 913.393 285.389 912.565 285.59C909.358 286.103 906.244 286.025 903 286C902.931 277.429 902.877 268.859 902.845 260.288C902.829 256.308 902.808 252.329 902.774 248.349C902.741 244.511 902.723 240.673 902.715 236.834C902.71 235.367 902.699 233.901 902.683 232.435C902.661 230.385 902.658 228.336 902.66 226.286C902.653 225.118 902.646 223.95 902.639 222.746C902.758 221.84 902.877 220.934 903 220C906.995 217.337 910.914 216.662 915.563 215.625C916.533 215.408 917.503 215.191 918.503 214.968C925.925 213.357 933.373 211.999 940.875 210.813C941.827 210.658 942.779 210.504 943.76 210.344C963.552 207.36 983.395 206.671 1003.38 206.739ZM970 382C965.686 388.196 964.434 393.507 965 401C966.522 407.343 969.334 412.137 974.813 415.75C992.53 425.949 1022.53 422.258 1041.5 417.25C1052.98 413.562 1063.23 409.001 1069.12 397.891C1071.72 391.498 1072.04 385.103 1072.02 378.262C1072.02 376.504 1072.02 376.504 1072.01 374.71C1072.01 373.816 1072 372.921 1072 372C1061.91 371.93 1051.81 371.877 1041.72 371.845C1037.03 371.829 1032.35 371.808 1027.66 371.774C1023.13 371.741 1018.59 371.723 1014.06 371.716C1012.34 371.71 1010.62 371.699 1008.9 371.683C995.055 371.557 980.678 371.885 970 382Z" fill="#FF7A4A"/>
<path d="M722.657 206.739C725.93 206.75 729.202 206.739 732.475 206.727C748.729 206.715 764.564 207.554 780.438 211.313C781.839 211.64 781.839 211.64 783.268 211.973C789.956 213.601 795.923 215.748 802.001 219C803.725 219.813 805.45 220.625 807.175 221.437C828.273 231.557 844.543 248.34 852.376 270.5C853.307 273.318 854.166 276.152 855.001 279C855.199 279.649 855.397 280.298 855.601 280.967C862.495 303.867 861.72 328.146 860.126 351.75C860.008 353.518 860.008 353.518 859.888 355.321C858.614 372.387 858.614 372.387 855.001 376C852.554 376.193 850.222 376.261 847.775 376.241C847.022 376.242 846.269 376.244 845.493 376.246C842.956 376.249 840.42 376.238 837.883 376.227C836.07 376.227 834.257 376.227 832.444 376.228C827.51 376.229 822.576 376.217 817.643 376.203C812.491 376.19 807.34 376.189 802.188 376.187C792.427 376.181 782.667 376.164 772.906 376.144C761.796 376.122 750.686 376.111 739.577 376.101C716.718 376.08 693.859 376.045 671.001 376C671.474 377.44 671.949 378.88 672.425 380.319C672.689 381.121 672.954 381.923 673.226 382.749C675.543 389.483 678.518 395.34 684.001 400C684.765 400.651 685.529 401.302 686.317 401.973C718.964 426.636 792.739 415.485 831.001 410.313C831.961 410.169 832.922 410.026 833.912 409.878C842.042 408.683 842.042 408.683 846.001 410C847.001 411 847.001 411 847.121 413.512C847.119 414.629 847.116 415.746 847.114 416.897C847.114 418.158 847.114 419.419 847.114 420.719C847.109 422.106 847.104 423.492 847.098 424.879C847.096 426.29 847.095 427.701 847.094 429.112C847.09 432.833 847.08 436.553 847.069 440.273C847.059 444.067 847.054 447.861 847.049 451.654C847.039 459.103 847.022 466.552 847.001 474C843.151 475.705 839.495 477.293 835.383 478.246C834.543 478.442 833.702 478.637 832.836 478.839C831.494 479.135 831.494 479.135 830.126 479.438C828.688 479.756 828.688 479.756 827.221 480.081C798.266 486.339 769.602 488.16 740.063 488.25C739.082 488.255 738.101 488.261 737.09 488.266C718.703 488.343 700.291 487.574 682.251 483.75C681.21 483.534 680.17 483.318 679.098 483.095C660.988 479.185 643.236 472.792 628.001 462C628.001 461.34 628.001 460.68 628.001 460C627.405 459.718 626.809 459.436 626.196 459.145C609.682 450.535 599.161 427.979 593.641 411.075C589.994 399.261 588.049 387.299 587.001 375C586.943 374.325 586.885 373.651 586.825 372.956C584.58 345.261 585.536 317.075 592.001 290C592.372 288.389 592.372 288.389 592.751 286.746C596.302 272.562 603.615 255.65 614.001 245C614.661 245 615.321 245 616.001 245C616.22 244.447 616.439 243.894 616.665 243.324C618.445 240.226 620.733 238.211 623.376 235.813C624.332 234.932 625.289 234.052 626.274 233.145C628.708 231.23 629.99 230.364 633.001 230C633.001 229.34 633.001 228.68 633.001 228C646.02 220.724 658.852 214.81 673.376 211.25C674.176 211.051 674.977 210.853 675.802 210.648C691.314 207.074 706.807 206.678 722.657 206.739ZM680.001 284C677.757 286.871 675.841 289.858 674.001 293C673.134 294.454 673.134 294.454 672.251 295.938C669.679 302.239 669.001 308.216 669.001 315C706.291 315 743.581 315 782.001 315C780.801 297.799 780.801 297.799 771.563 284C752.283 268.525 698.341 265.378 680.001 284Z" fill="#FF7A4A"/>
<path d="M512.902 206.739C515.6 206.75 518.298 206.739 520.996 206.727C530.048 206.719 539.01 207.026 548.023 207.891C548.853 207.968 549.682 208.046 550.537 208.126C551.313 208.208 552.089 208.291 552.888 208.376C553.902 208.484 553.902 208.484 554.936 208.593C557 209 557 209 562 211C562 240.04 562 269.08 562 299C557.72 300.07 556.336 299.767 552.188 298.688C527.773 293.115 494.975 291.007 472.438 303.938C468.843 306.275 465.875 308.797 463 312C462.216 312.681 461.433 313.361 460.625 314.063C454.538 320.875 450.797 328.63 448.188 337.313C447.993 337.95 447.798 338.588 447.598 339.245C444.423 350.653 443.699 362.694 443.41 374.473C443.373 375.77 443.337 377.068 443.299 378.405C442.75 398.743 442.634 419.094 442.438 439.438C442.293 453.813 442.149 468.189 442 483C411.97 483 381.94 483 351 483C351 392.58 351 302.16 351 209C375.42 209 399.84 209 425 209C425.99 216.57 426.98 224.139 428 231.938C428.313 234.309 428.626 236.681 428.949 239.125C429.196 241.03 429.442 242.935 429.688 244.84C429.817 245.809 429.947 246.778 430.08 247.776C430.821 253.572 431.126 259.157 431 265C431.66 265 432.32 265 433 265C433.014 264.441 433.028 263.881 433.043 263.305C433.886 249.134 440.254 235.288 450 225C450.66 225 451.32 225 452 225C452.495 223.515 452.495 223.515 453 222C454.975 220.519 456.888 219.259 459 218C459.641 217.595 460.281 217.191 460.941 216.774C476.763 207.275 494.977 206.656 512.902 206.739Z" fill="#FF7A4A"/>
<path d="M0 127C220.182 127 220.182 127 248 139C249.296 139.487 249.296 139.487 250.617 139.984C260.398 143.772 271.008 149.086 279 156C279 156.66 279 157.32 279 158C279.857 158.356 279.857 158.356 280.73 158.719C298.37 168.677 306.847 195.441 311.957 213.785C315.926 229.262 317.867 245.093 319 261C319.087 262.13 319.087 262.13 319.175 263.282C323.132 316.792 324.644 382.814 298 431C297.34 431 296.68 431 296 431C295.876 431.577 295.752 432.155 295.625 432.75C294.994 435.023 294.111 436.925 293 439C292.34 439 291.68 439 291 439C290.732 439.804 290.464 440.609 290.188 441.438C289.796 442.283 289.404 443.129 289 444C288.01 444.33 287.02 444.66 286 445C285.329 446.331 284.663 447.665 284 449C256.184 477.92 212.435 482.345 174.41 483.107C162.905 483.284 151.398 483.237 139.892 483.203C135.439 483.191 130.985 483.191 126.532 483.189C113.604 483.179 100.677 483.151 87.75 483.125C58.7925 483.084 29.835 483.043 0 483C0 365.52 0 248.04 0 127ZM91 204C91 270.66 91 337.32 91 406C137.642 408.471 137.642 408.471 187 401.688C187.71 401.471 188.42 401.254 189.152 401.031C194.346 399.374 198.744 397.394 203 394C203.594 393.553 204.189 393.105 204.801 392.645C206.259 391.501 207.639 390.259 209 389C209 388.34 209 387.68 209 387C209.99 386.67 210.98 386.34 212 386C230.131 365.179 228.165 327.931 228.25 302.375C228.255 301.475 228.261 300.576 228.266 299.649C228.384 273.61 228.275 240.637 209.414 220.289C180.787 193.812 121.124 204 91 204Z" fill="#FF7A4A"/>
</svg>
